<svg width="648" height="116" viewBox="0 0 648 116" fill="none" xmlns="http://www.w3.org/2000/svg">
    <rect y="7" width="648" height="109" rx="54.5" fill="#4B63D1"/>
    <rect width="648" height="109" rx="54.5" fill="#5D78F9"/>
    <path d="M142.933 41.075h-4.136v7.144h-2.7v-6.597h-4.067V58.61h4.067v-6.904h2.7v7.11h4.136v-17.74zm-25.635 16.406h2.188c4.631 0 7.742-.136 11.347-.786l-.41-3.52c-2.837.564-5.417.735-8.784.769V46.51h7.896v-3.418h-12.237v14.39zm4.17 14.288h21.465V60.113h-21.465V71.77zm4.307-3.35v-4.922h12.851v4.922h-12.851zm47.407-27.344h-4.136v7.144h-2.7v-6.597h-4.067V58.61h4.067v-6.904h2.7v7.11h4.136v-17.74zm-25.635 16.406h2.188c4.631 0 7.742-.136 11.348-.786l-.411-3.52c-2.837.564-5.417.735-8.784.769V46.51h7.896v-3.418h-12.237v14.39zm4.17 14.288h21.465V60.113h-21.465V71.77zm4.307-3.35v-4.922h12.851v4.922h-12.851zm36.025-25.669c-4.17-.017-7.16 2.94-7.143 7.212-.017 4.221 2.973 7.212 7.143 7.212s7.195-2.99 7.212-7.212c-.017-4.273-3.042-7.23-7.212-7.212zm-3.247 7.212c-.017-2.393 1.333-3.709 3.247-3.692 1.897-.017 3.23 1.3 3.247 3.692-.017 2.307-1.35 3.623-3.247 3.623-1.914 0-3.264-1.316-3.247-3.623zm1.436 21.84h21.26V59.226h-4.307v2.837h-12.647v-2.837h-4.306v12.578zm4.306-3.486v-2.802h12.647v2.802h-12.647zm6.153-10.561h4.067V51.09h2.598v6.87h4.136V41.075h-4.136v6.46h-2.598v-5.913h-4.067v16.133zm41.289-16.714h-4.17v31.103h4.17V41.041zm-26.694 13.467c0 6.99 2.648 11.313 6.767 11.313 3.828 0 6.443-3.708 6.819-9.81h2.512V70.71h4.102V41.485h-4.102V52.56h-2.546c-.479-5.811-3.042-9.314-6.785-9.297-4.119-.017-6.767 4.29-6.767 11.245zm4.033 0c-.034-4.768.991-7.144 2.734-7.144 1.795 0 2.854 2.376 2.837 7.144.017 4.785-1.042 7.143-2.837 7.11-1.743.033-2.768-2.325-2.734-7.11zm37.7-6.426v-4.648h-4.409v4.648c-.034 5.845-2.461 11.843-7.793 14.253l2.734 3.555c3.555-1.743 5.947-5.093 7.28-9.178 1.299 3.846 3.623 6.956 7.076 8.63l2.666-3.486c-5.179-2.238-7.537-7.93-7.554-13.774zm4.067 6.255h6.118v17.876h4.307V41.04h-4.307v9.775h-6.118v3.52zm48.296-10.596h-23.003v3.452h18.628c-.017 3.606-.051 7.828-1.059 13.535l4.272.377c1.145-6.272 1.145-10.528 1.162-14.322v-3.042zm-25.805 24.61h28.369v-3.555h-10.254V55.02h-4.307v9.776h-3.418V55.02h-4.341v9.776h-6.049v3.555zm58.618-11.28h-12.032v-1.914h8.99v-3.35h-17.466V50.03h16.474v-3.144h-16.474v-1.743h17.192v-3.35h-21.567v13.364h8.476v1.914h-12.031v3.418h28.438v-3.418zm-25.122 9.947c0 3.35 3.93 5.144 10.903 5.126 6.853.018 10.801-1.777 10.835-5.126-.034-3.282-3.982-5.127-10.835-5.093-6.973-.034-10.903 1.811-10.903 5.093zm4.375 0c-.035-1.3 2.05-1.897 6.528-1.88 4.375-.017 6.443.58 6.46 1.88-.017 1.333-2.085 1.914-6.46 1.914-4.478 0-6.563-.581-6.528-1.914zm49.834-25.977h-4.205v31.103h4.205V41.041zm-27.549 20.405.478 3.59c3.897 0 10.254-.12 15.176-1.163l-.308-3.145a47.87 47.87 0 0 1-2.495.291V48.082h1.983v-3.52H344.32v3.52h2.016v13.364h-2.597zm6.46-.068V48.082h2.426v13.21c-.82.035-1.623.069-2.426.086zm7.656-5.127h3.008v14.424h4.136V41.656h-4.136v10.699h-3.008v3.896zm42.52-15.21h-4.41v31.172h4.41V41.04zm-25.123 13.262c-.017 6.836 3.453 11.108 8.238 11.108 4.682 0 8.169-4.272 8.169-11.108 0-6.785-3.487-11.075-8.169-11.075-4.785 0-8.255 4.29-8.238 11.075zm4.205 0c-.018-4.614 1.606-7.144 4.033-7.144 2.358 0 3.948 2.53 3.965 7.144-.017 4.631-1.607 7.16-3.965 7.143-2.427.017-4.051-2.512-4.033-7.143zM438.69 41.04h-4.409v31.172h4.409V41.04zm-25.122 13.262c-.017 6.836 3.452 11.108 8.237 11.108 4.683 0 8.169-4.272 8.169-11.108 0-6.785-3.486-11.075-8.169-11.075-4.785 0-8.254 4.29-8.237 11.075zm4.204 0c-.017-4.614 1.606-7.144 4.033-7.144 2.359 0 3.948 2.53 3.965 7.144-.017 4.631-1.606 7.16-3.965 7.143-2.427.017-4.05-2.512-4.033-7.143zm53.491 1.47h-6.528V52.08c2.324-.991 3.64-2.546 3.657-4.58-.017-3.76-4.443-5.999-11.313-6.016-6.922.017-11.348 2.256-11.348 6.016 0 2 1.282 3.538 3.555 4.546v3.726h-6.392v3.486h28.369v-3.486zM446.141 66.47c0 3.674 4.085 5.64 10.903 5.64 6.717 0 10.801-1.966 10.835-5.64-.034-3.59-4.118-5.589-10.835-5.572-6.818-.017-10.903 1.983-10.903 5.572zm4.136-18.97c-.034-1.743 2.41-2.666 6.802-2.666 4.34 0 6.801.923 6.801 2.666 0 1.709-2.461 2.58-6.801 2.564-4.392.017-6.836-.855-6.802-2.564zm.307 18.97c-.017-1.538 2.154-2.273 6.46-2.29 4.222.017 6.443.752 6.46 2.29-.017 1.59-2.238 2.392-6.46 2.392-4.306 0-6.477-.803-6.46-2.392zm3.111-10.699v-2.614c1.042.12 2.17.188 3.384.188 1.179 0 2.29-.052 3.315-.188v2.614h-6.699zm43.989-14.731h-4.307v31.103h4.307V56.798h4.58v-3.589h-4.58V41.041zm-24.712 8.135h18.286V45.69h-6.87v-4.17h-4.375v4.17h-7.041v3.486zm1.265 9.16c-.017 4.34 3.367 7.4 7.964 7.417 4.528-.017 7.929-3.076 7.929-7.417 0-4.34-3.401-7.434-7.929-7.417-4.597-.017-7.981 3.076-7.964 7.417zm4.17 0c0-2.393 1.589-3.862 3.794-3.896 2.17.034 3.759 1.503 3.759 3.896 0 2.41-1.589 3.845-3.759 3.828-2.205.017-3.794-1.418-3.794-3.828zM529.54 41.04h-4.41v31.103h4.41V41.041zm-26.045 22.285 2.29 3.486c11.108-5.246 14.406-13.09 14.423-22.524h-15.039v3.418h10.596c-.701 6.904-4.238 11.826-12.27 15.62z" fill="#fff"/>
</svg>
