<svg width="607" height="188" viewBox="0 0 607 188" fill="none" xmlns="http://www.w3.org/2000/svg">
<path d="M41.8076 147.132H28.6006V148.711H39.8594V149.101C39.8696 151.356 39.8696 153.817 39.2236 157.14L41.1309 157.345C41.7871 153.828 41.7871 151.408 41.8076 149.101V147.132ZM26.8779 161.262H43.6328V159.642H37.3369V153.694H35.4297V159.642H32.7842V153.694H30.8359V159.642H26.8779V161.262Z" fill="black"/>
<path d="M61.7822 155.027H54.3584V153.428H59.8545V151.91H49.1494V150.352H59.2598V148.896H49.1494V147.398H59.7314V145.86H47.1807V153.428H52.4102V155.027H44.9863V156.565H61.7822V155.027ZM47.0166 160.749C47.0166 162.687 49.3032 163.712 53.3945 163.702C57.4243 163.712 59.7212 162.687 59.7314 160.749C59.7212 158.821 57.4243 157.765 53.3945 157.775C49.3032 157.765 47.0166 158.821 47.0166 160.749ZM48.9648 160.749C48.9546 159.754 50.4927 159.231 53.3945 159.231C56.2554 159.231 57.7832 159.754 57.7832 160.749C57.7832 161.744 56.2554 162.246 53.3945 162.226C50.4927 162.246 48.9546 161.744 48.9648 160.749Z" fill="black"/>
<path d="M72.7334 147.234H64.3457V148.813H70.7749C70.7031 149.859 70.5493 150.854 70.2725 151.797L63.3818 152.259L63.6689 153.94L69.6675 153.376C68.5806 155.704 66.6016 157.683 63.2793 159.313L64.3457 160.77C71.0518 157.468 72.7129 152.659 72.7334 147.234ZM75.543 163.723H77.4912V154.31H80.3418V152.71H77.4912V145.368H75.543V163.723Z" fill="black"/>
<path d="M96.2148 154.084H85.3457V148.608H96.0508V147.009H83.418V155.684H96.2148V154.084ZM81.3262 161.323H98.1426V159.703H81.3262V161.323Z" fill="black"/>
<path d="M51.4463 173.08V172.465H55.4043V170.906H45.499V172.465H49.498V173.08C49.4878 175.623 47.7549 178.063 44.9043 179.048L45.9297 180.606C48.0933 179.827 49.6826 178.207 50.4927 176.187C51.2925 178.002 52.7998 179.427 54.8301 180.135L55.917 178.679C53.0972 177.715 51.436 175.49 51.4463 173.08ZM47.8164 187.354H60.2441V185.774H49.7646V181.57H47.8164V187.354ZM57.5166 182.801H59.4648V176.525H62.1309V174.905H59.4648V169.348H57.5166V182.801Z" fill="black"/>
<path d="M67.5449 170.496C65.0942 170.506 63.3306 172.311 63.3408 174.905C63.3306 177.489 65.0942 179.253 67.5449 179.253C69.9751 179.253 71.7695 177.489 71.7695 174.905C71.7695 172.311 69.9751 170.506 67.5449 170.496ZM65.084 174.905C65.0737 173.275 66.1196 172.178 67.5449 172.178C68.96 172.178 69.9854 173.275 70.0059 174.905C69.9854 176.505 68.96 177.623 67.5449 177.612C66.1196 177.623 65.0737 176.505 65.084 174.905ZM66.3555 182.842H76.917V187.743H78.8447V181.283H66.3555V182.842ZM73.041 180.217H74.8662V175.603H76.999V180.34H78.8447V169.389H76.999V174.023H74.8662V169.717H73.041V180.217Z" fill="black"/>
<path d="M285.808 146.132H272.601V147.711H283.859V148.101C283.87 150.356 283.87 152.817 283.224 156.14L285.131 156.345C285.787 152.828 285.787 150.408 285.808 148.101V146.132ZM270.878 160.262H287.633V158.642H281.337V152.694H279.43V158.642H276.784V152.694H274.836V158.642H270.878V160.262Z" fill="black"/>
<path d="M305.782 154.027H298.358V152.428H303.854V150.91H293.149V149.352H303.26V147.896H293.149V146.398H303.731V144.86H291.181V152.428H296.41V154.027H288.986V155.565H305.782V154.027ZM291.017 159.749C291.017 161.687 293.303 162.712 297.395 162.702C301.424 162.712 303.721 161.687 303.731 159.749C303.721 157.821 301.424 156.765 297.395 156.775C293.303 156.765 291.017 157.821 291.017 159.749ZM292.965 159.749C292.955 158.754 294.493 158.231 297.395 158.231C300.255 158.231 301.783 158.754 301.783 159.749C301.783 160.744 300.255 161.246 297.395 161.226C294.493 161.246 292.955 160.744 292.965 159.749Z" fill="black"/>
<path d="M323.07 144.368H321.204V162.743H323.07V144.368ZM306.972 156.673L307.197 158.313C309.576 158.313 313.391 158.231 316.303 157.657L316.159 156.242C315.605 156.314 315 156.386 314.375 156.437V148.224H315.79V146.624H307.361V148.224H308.776V156.663C308.12 156.673 307.505 156.673 306.972 156.673ZM310.54 156.632V148.224H312.57V156.56C311.894 156.591 311.207 156.622 310.54 156.632ZM315.298 153.002H317.595V161.8H319.44V144.778H317.595V151.259H315.298V153.002Z" fill="black"/>
<path d="M340.543 144.368H338.595V162.784H340.543V144.368ZM325.962 152.182C325.962 156.15 327.941 158.652 330.72 158.642C333.447 158.652 335.457 156.15 335.457 152.182C335.457 148.254 333.447 145.752 330.72 145.742C327.941 145.752 325.962 148.254 325.962 152.182ZM327.849 152.182C327.838 149.3 329.007 147.496 330.72 147.485C332.401 147.496 333.57 149.3 333.57 152.182C333.57 155.104 332.401 156.898 330.72 156.898C329.007 156.898 327.838 155.104 327.849 152.182Z" fill="black"/>
<path d="M296.769 182.888H289.263V178.971H295.169V177.433H292.421V171.649H295.231V170.07H281.388V171.649H284.177V177.433H281.429V178.971H287.335V182.888H279.953V184.549H296.769V182.888ZM286.105 177.433V171.649H290.514V177.433H286.105Z" fill="black"/>
<path d="M313.339 168.389H311.391V181.739H313.339V168.389ZM298.471 174.172C298.481 176.869 300.594 178.745 303.373 178.745C306.141 178.745 308.253 176.869 308.253 174.172C308.253 171.516 306.141 169.629 303.373 169.619C300.594 169.629 298.481 171.516 298.471 174.172ZM300.378 174.172C300.368 172.48 301.66 171.321 303.373 171.321C305.054 171.321 306.346 172.48 306.346 174.172C306.346 175.905 305.054 177.043 303.373 177.043C301.66 177.043 300.368 175.905 300.378 174.172ZM301.322 186.354H313.893V184.774H303.291V180.386H301.322V186.354Z" fill="black"/>
<path d="M331.161 178.15H320.333V175.484H330.586V173.946H320.333V171.465H330.976V169.886H318.364V179.709H331.161V178.15ZM316.251 184.426H333.068V182.826H316.251V184.426Z" fill="black"/>
<path d="M503.592 146.275H501.644V158.17H502.854C505.13 158.17 507.171 158.078 509.56 157.575L509.293 155.914C507.253 156.345 505.479 156.458 503.592 156.488V146.275ZM506.792 152.018H510.811V161.841H512.657V144.778H510.811V150.418H506.792V152.018ZM514.749 162.743H516.594V144.368H514.749V162.743Z" fill="black"/>
<path d="M534.169 144.368H532.221V162.784H534.169V144.368ZM519.588 152.182C519.588 156.15 521.567 158.652 524.346 158.642C527.074 158.652 529.083 156.15 529.083 152.182C529.083 148.254 527.074 145.752 524.346 145.742C521.567 145.752 519.588 148.254 519.588 152.182ZM521.475 152.182C521.465 149.3 522.634 147.496 524.346 147.485C526.028 147.496 527.197 149.3 527.197 152.182C527.197 155.104 526.028 156.898 524.346 156.898C522.634 156.898 521.465 155.104 521.475 152.182Z" fill="black"/>
<path d="M552.421 144.368H550.494V151.074H546.433V145.783H544.526V150.479H539.789V145.783H537.82V158.231H546.433V152.674H550.494V162.784H552.421V144.368ZM539.789 156.632V152.018H544.526V156.632H539.789Z" fill="black"/>
<path d="M571.145 144.368H569.279V162.743H571.145V144.368ZM555.046 156.673L555.272 158.313C557.651 158.313 561.465 158.231 564.377 157.657L564.234 156.242C563.68 156.314 563.075 156.386 562.45 156.437V148.224H563.865V146.624H555.436V148.224H556.851V156.663C556.195 156.673 555.58 156.673 555.046 156.673ZM558.615 156.632V148.224H560.645V156.56C559.968 156.591 559.281 156.622 558.615 156.632ZM563.373 153.002H565.669V161.8H567.515V144.778H565.669V151.259H563.373V153.002Z" fill="black"/>
<path d="M588.618 144.368H586.669V162.784H588.618V144.368ZM574.037 152.182C574.037 156.15 576.016 158.652 578.794 158.642C581.522 158.652 583.532 156.15 583.532 152.182C583.532 148.254 581.522 145.752 578.794 145.742C576.016 145.752 574.037 148.254 574.037 152.182ZM575.923 152.182C575.913 149.3 577.082 147.496 578.794 147.485C580.476 147.496 581.645 149.3 581.645 152.182C581.645 155.104 580.476 156.898 578.794 156.898C577.082 156.898 575.913 155.104 575.923 152.182Z" fill="black"/>
<path d="M535.769 182.888H528.263V178.971H534.169V177.433H531.421V171.649H534.231V170.07H520.388V171.649H523.177V177.433H520.429V178.971H526.335V182.888H518.953V184.549H535.769V182.888ZM525.105 177.433V171.649H529.514V177.433H525.105Z" fill="black"/>
<path d="M552.339 168.389H550.391V181.739H552.339V168.389ZM537.471 174.172C537.481 176.869 539.594 178.745 542.373 178.745C545.141 178.745 547.253 176.869 547.253 174.172C547.253 171.516 545.141 169.629 542.373 169.619C539.594 169.629 537.481 171.516 537.471 174.172ZM539.378 174.172C539.368 172.48 540.66 171.321 542.373 171.321C544.054 171.321 545.346 172.48 545.346 174.172C545.346 175.905 544.054 177.043 542.373 177.043C540.66 177.043 539.368 175.905 539.378 174.172ZM540.322 186.354H552.893V184.774H542.291V180.386H540.322V186.354Z" fill="black"/>
<path d="M570.161 178.15H559.333V175.484H569.586V173.946H559.333V171.465H569.976V169.886H557.364V179.709H570.161V178.15ZM555.251 184.426H572.068V182.826H555.251V184.426Z" fill="black"/>
<g clip-path="url(#clip0_39_28)">
<path d="M338.075 4H273.925C258.502 4 246 16.5024 246 31.9249V96.0751C246 111.498 258.502 124 273.925 124H338.075C353.498 124 366 111.498 366 96.0751V31.9249C366 16.5024 353.498 4 338.075 4Z" fill="#224CC4"/>
<path d="M286.367 77.2262C283.996 77.2262 282.073 79.149 282.073 81.5203C282.073 83.8916 283.996 85.8143 286.367 85.8143C288.739 85.8143 290.662 83.8916 290.662 81.5203C290.662 79.149 288.739 77.2262 286.367 77.2262Z" fill="white"/>
<path d="M325.632 85.8125C328.004 85.8125 329.927 83.89 329.927 81.5184C329.927 79.1469 328.004 77.2244 325.632 77.2244C323.261 77.2244 321.338 79.1469 321.338 81.5184C321.338 83.89 323.261 85.8125 325.632 85.8125Z" fill="white"/>
<path d="M261.959 50.9132C260.124 50.9132 258.637 52.4 258.637 54.2352V62.7912C258.637 64.6264 260.124 66.1131 261.959 66.1131C263.795 66.1131 265.281 64.6264 265.281 62.7912V54.2352C265.281 52.4017 263.795 50.9132 261.959 50.9132Z" fill="white"/>
<path d="M350.039 50.9132C348.204 50.9132 346.717 52.4 346.717 54.2352V62.7912C346.717 64.6264 348.204 66.1131 350.039 66.1131C351.874 66.1131 353.361 64.6264 353.361 62.7912V54.2352C353.361 52.4017 351.874 50.9132 350.039 50.9132Z" fill="white"/>
<path d="M339.085 38.9405C336.597 36.2297 333.211 34.3712 329.41 33.794C328.599 33.6707 327.773 33.585 326.928 33.585H285.072C275.973 33.585 268.569 40.9884 268.569 50.0876V90.2103C268.569 91.806 269.863 93.1016 271.461 93.1016C273.058 93.1016 274.352 91.8078 274.352 90.2103V70.584H337.648V90.2103C337.648 91.806 338.942 93.1016 340.539 93.1016C342.137 93.1016 343.431 91.8078 343.431 90.2103V50.0876C343.431 47.8074 342.954 45.638 342.114 43.6617C341.372 41.9176 340.35 40.3182 339.087 38.9423L339.085 38.9405ZM274.352 65.4001V50.0876C274.352 44.1763 279.161 39.3658 285.072 39.3658H326.926C329.66 39.3658 332.151 40.404 334.047 42.0945C335.214 43.1363 336.133 44.4372 336.76 45.8918C337.316 47.182 337.648 48.5937 337.648 50.0858V65.3983H274.352V65.4001Z" fill="white"/>
</g>
<path d="M503 8.05505H588.373C596.105 8.05505 602.373 14.3231 602.373 22.0551V106.472C602.373 114.204 596.105 120.472 588.373 120.472H503C495.268 120.472 489 114.204 489 106.472V22.055C489 14.3231 495.268 8.05505 503 8.05505Z" fill="white" stroke="#39CA34" stroke-width="8"/>
<path d="M521.794 35.5929V60.9187H510.804V69.042H521.794V92.9343H531.351V53.2732L560.499 92.9343H571.012V69.042H581.525V60.9187H571.012V35.5929H560.499V75.254L531.351 35.5929H521.794Z" fill="#39CA34"/>
<circle cx="62.0192" cy="62.4527" r="62.0192" fill="#4CBFD9"/>
<rect x="23.5402" y="37.5544" width="76.9582" height="51.6072" rx="8" fill="white"/>
<path fill-rule="evenodd" clip-rule="evenodd" d="M53.418 81.9186H50.4001C49.5671 81.9186 48.8911 81.2426 48.8911 80.4096V78.9006C48.0913 78.9006 47.3233 78.5822 46.7574 78.0164C46.1915 77.4505 45.8731 76.6824 45.8731 75.8827V63.8108C45.0402 63.8108 44.3641 63.1348 44.3641 62.3018V57.7749C44.3641 56.9419 45.0402 56.2659 45.8731 56.2659V50.23C45.8731 47.7296 47.8997 45.703 50.4001 45.703H74.5438C77.0442 45.703 79.0708 47.7296 79.0708 50.23V56.2659C79.9037 56.2659 80.5797 56.9419 80.5797 57.7749V62.3018C80.5797 63.1348 79.9037 63.8108 79.0708 63.8108V75.8827C79.0708 76.6824 78.7524 77.4505 78.1865 78.0164C77.6206 78.5822 76.8526 78.9006 76.0528 78.9006V80.4096C76.0528 81.2426 75.3768 81.9186 74.5438 81.9186H71.5258C70.6929 81.9186 70.0169 81.2426 70.0169 80.4096V78.9006H54.927V80.4096C54.927 81.2426 54.251 81.9186 53.418 81.9186ZM51.1546 71.3557C52.404 71.3557 53.418 72.3698 53.418 73.6192C53.418 74.8686 52.404 75.8827 51.1546 75.8827C49.9051 75.8827 48.8911 74.8686 48.8911 73.6192C48.8911 72.3698 49.9051 71.3557 51.1546 71.3557ZM73.7893 71.3557C75.0388 71.3557 76.0528 72.3698 76.0528 73.6192C76.0528 74.8686 75.0388 75.8827 73.7893 75.8827C72.5399 75.8827 71.5258 74.8686 71.5258 73.6192C71.5258 72.3698 72.5399 71.3557 73.7893 71.3557ZM66.2444 72.8647H58.6995C58.283 72.8647 57.945 73.2027 57.945 73.6192C57.945 74.0357 58.283 74.3737 58.6995 74.3737H66.2444C66.6609 74.3737 66.9989 74.0357 66.9989 73.6192C66.9989 73.2027 66.6609 72.8647 66.2444 72.8647ZM76.0528 54.0024C76.0528 53.5859 75.7148 53.2479 75.2983 53.2479H49.6456C49.2291 53.2479 48.8911 53.5859 48.8911 54.0024V66.8288C48.8911 66.8288 53.5659 68.3378 62.4719 68.3378C71.378 68.3378 76.0528 66.8288 76.0528 66.8288V54.0024ZM68.5079 48.721H56.436V50.23H68.5079V48.721Z" fill="#4CBFD9"/>
<path d="M210.849 62.2751C211.531 63.7916 211.134 65.5764 209.872 66.6594L202.046 73.3752C200.464 74.7331 198.054 74.4246 196.865 72.7119V72.7119C196.466 72.1378 196.248 71.458 196.237 70.7592L196.058 59.0216C196.008 55.7583 199.677 53.8121 202.351 55.6833L209.579 60.7417C210.133 61.1291 210.572 61.6589 210.849 62.2751V62.2751Z" fill="#C25B5B"/>
<path d="M209.307 60.2132C210.718 61.4112 210.718 63.5889 209.307 64.7869L200.88 71.9411C198.932 73.5957 195.939 72.2107 195.939 69.6542L195.939 55.3459C195.939 52.7894 198.932 51.4044 200.88 53.059L209.307 60.2132Z" fill="url(#paint0_linear_39_28)"/>
<path d="M193.086 62.2751C193.769 63.7916 193.371 65.5764 192.109 66.6594L184.283 73.3752C182.701 74.7331 180.291 74.4246 179.102 72.7119V72.7119C178.704 72.1378 178.485 71.458 178.474 70.7592L178.295 59.0216C178.246 55.7583 181.914 53.8121 184.588 55.6833L191.817 60.7417C192.37 61.1291 192.809 61.6589 193.086 62.2751V62.2751Z" fill="#C25B5B"/>
<path d="M191.544 60.2132C192.955 61.4112 192.955 63.5889 191.544 64.7869L183.118 71.9411C181.169 73.5957 178.176 72.2107 178.176 69.6542L178.176 55.3459C178.176 52.7894 181.169 51.4044 183.118 53.059L191.544 60.2132Z" fill="url(#paint1_linear_39_28)"/>
<path d="M175.323 62.2751C176.006 63.7916 175.608 65.5764 174.346 66.6594L166.52 73.3752C164.938 74.7331 162.529 74.4246 161.339 72.7119V72.7119C160.941 72.1378 160.722 71.458 160.712 70.7592L160.532 59.0216C160.483 55.7583 164.151 53.8121 166.825 55.6833L174.054 60.7417C174.607 61.1291 175.046 61.6589 175.323 62.2751V62.2751Z" fill="#C25B5B"/>
<path d="M173.781 60.2132C175.192 61.4112 175.192 63.5889 173.781 64.7869L165.355 71.9411C163.406 73.5957 160.413 72.2107 160.413 69.6542L160.413 55.3459C160.413 52.7894 163.406 51.4044 165.355 53.059L173.781 60.2132Z" fill="url(#paint2_linear_39_28)"/>
<path d="M452.79 62.2751C453.472 63.7916 453.074 65.5764 451.812 66.6594L443.987 73.3752C442.404 74.7331 439.995 74.4246 438.806 72.7119V72.7119C438.407 72.1378 438.189 71.458 438.178 70.7592L437.999 59.0216C437.949 55.7583 441.618 53.8121 444.292 55.6833L451.52 60.7417C452.074 61.1291 452.512 61.6589 452.79 62.2751V62.2751Z" fill="#C25B5B"/>
<path d="M451.247 60.2132C452.658 61.4112 452.658 63.5889 451.247 64.7869L442.821 71.9411C440.872 73.5957 437.879 72.2107 437.879 69.6542L437.879 55.3459C437.879 52.7894 440.872 51.4044 442.821 53.059L451.247 60.2132Z" fill="url(#paint3_linear_39_28)"/>
<path d="M435.027 62.2751C435.709 63.7916 435.311 65.5764 434.049 66.6594L426.224 73.3752C424.641 74.7331 422.232 74.4246 421.043 72.7119V72.7119C420.644 72.1378 420.426 71.458 420.415 70.7592L420.236 59.0216C420.186 55.7583 423.855 53.8121 426.529 55.6833L433.757 60.7417C434.311 61.1291 434.75 61.6589 435.027 62.2751V62.2751Z" fill="#C25B5B"/>
<path d="M433.484 60.2132C434.895 61.4112 434.895 63.5889 433.484 64.7869L425.058 71.9411C423.109 73.5957 420.117 72.2107 420.117 69.6542L420.117 55.3459C420.117 52.7894 423.109 51.4044 425.058 53.059L433.484 60.2132Z" fill="url(#paint4_linear_39_28)"/>
<path d="M417.264 62.2751C417.946 63.7916 417.549 65.5764 416.287 66.6594L408.461 73.3752C406.879 74.7331 404.469 74.4246 403.28 72.7119V72.7119C402.882 72.1378 402.663 71.458 402.652 70.7592L402.473 59.0216C402.423 55.7583 406.092 53.8121 408.766 55.6833L415.995 60.7417C416.548 61.1291 416.987 61.6589 417.264 62.2751V62.2751Z" fill="#C25B5B"/>
<path d="M415.722 60.2132C417.133 61.4112 417.133 63.5889 415.722 64.7869L407.295 71.9411C405.347 73.5957 402.354 72.2107 402.354 69.6542L402.354 55.3459C402.354 52.7894 405.347 51.4044 407.295 53.059L415.722 60.2132Z" fill="url(#paint5_linear_39_28)"/>
<defs>
<linearGradient id="paint0_linear_39_28" x1="197.828" y1="46.7537" x2="204.937" y2="71.5574" gradientUnits="userSpaceOnUse">
<stop stop-color="#FFA9A9"/>
<stop offset="1" stop-color="#DF7474"/>
</linearGradient>
<linearGradient id="paint1_linear_39_28" x1="180.065" y1="46.7537" x2="187.174" y2="71.5574" gradientUnits="userSpaceOnUse">
<stop stop-color="#FFA9A9"/>
<stop offset="1" stop-color="#DF7474"/>
</linearGradient>
<linearGradient id="paint2_linear_39_28" x1="162.303" y1="46.7537" x2="169.411" y2="71.5574" gradientUnits="userSpaceOnUse">
<stop stop-color="#FFA9A9"/>
<stop offset="1" stop-color="#DF7474"/>
</linearGradient>
<linearGradient id="paint3_linear_39_28" x1="439.769" y1="46.7537" x2="446.878" y2="71.5574" gradientUnits="userSpaceOnUse">
<stop stop-color="#FFA9A9"/>
<stop offset="1" stop-color="#DF7474"/>
</linearGradient>
<linearGradient id="paint4_linear_39_28" x1="422.006" y1="46.7537" x2="429.115" y2="71.5574" gradientUnits="userSpaceOnUse">
<stop stop-color="#FFA9A9"/>
<stop offset="1" stop-color="#DF7474"/>
</linearGradient>
<linearGradient id="paint5_linear_39_28" x1="404.243" y1="46.7537" x2="411.352" y2="71.5574" gradientUnits="userSpaceOnUse">
<stop stop-color="#FFA9A9"/>
<stop offset="1" stop-color="#DF7474"/>
</linearGradient>
<clipPath id="clip0_39_28">
<rect width="120" height="120" fill="white" transform="translate(246 4)"/>
</clipPath>
</defs>
</svg>
