<svg width="100" height="25" viewBox="0 0 100 25" fill="none" xmlns="http://www.w3.org/2000/svg">
    <path d="M35.446 9.846h1.544c.173 0 .26.093.26.28v5.171h2.083v-5.175c0-.186.087-.28.26-.28h1.544c.174 0 .26.094.26.28v5.172h5.824c.061 0 .128.032.196.093.067.06.103.125.103.186v1.23c0 .06-.036.125-.103.186-.068.06-.135.093-.196.093H31.237a.255.255 0 0 1-.205-.093.306.306 0 0 1-.074-.186v-1.23c0-.074.025-.138.074-.196a.264.264 0 0 1 .205-.083h3.945v-5.172c0-.186.087-.28.26-.28l.004.004zm9.993-4.67c0 1.675-.048 3.2-.147 4.577-.1 1.377-.235 2.523-.411 3.441a.793.793 0 0 1-.122.27.228.228 0 0 1-.231.103l-1.525-.113c-.1-.013-.158-.048-.177-.112a.447.447 0 0 1 .01-.24c.087-.46.16-.993.224-1.6a47.725 47.725 0 0 0 .221-3.769c.014-.625.02-1.194.02-1.7 0-.174-.041-.283-.122-.325-.08-.045-.208-.064-.382-.064h-9.396a.334.334 0 0 1-.186-.064c-.061-.042-.094-.097-.094-.158V4.084c0-.074.033-.132.094-.167a.346.346 0 0 1 .186-.055h10.793c.398 0 .703.106.921.315.218.212.324.545.324 1.004v-.006zM51.85 9.64c-.192-.186-.288-.507-.288-.966V4.04c0-.46.102-.78.308-.967.205-.186.543-.279 1.014-.279h9.827c.173 0 .26.08.26.24V4.17a.268.268 0 0 1-.074.177.241.241 0 0 1-.186.083h-8.764c-.112 0-.18.01-.206.03-.025.018-.038.083-.038.195v.912h8.729c.06 0 .125.025.186.074.06.048.093.105.093.166v1.098a.206.206 0 0 1-.093.177.311.311 0 0 1-.186.064h-8.729v.873c0 .138.01.219.029.241.02.026.096.039.231.039h8.822c.212 0 .318.08.318.24v1.08c0 .198-.106.298-.318.298h-4.43v1.618h7.033c.061 0 .122.028.187.083.06.055.093.116.093.177v1.117a.295.295 0 0 1-.093.205c-.061.061-.126.093-.187.093H49.18c-.174 0-.26-.1-.26-.298v-1.117c0-.174.086-.26.26-.26h7.033V9.917h-3.332c-.497 0-.84-.093-1.034-.28l.004.004zm11.323 7.612c0 .957-.507 1.698-1.525 2.235-1.017.532-2.468.799-4.353.799-1.884 0-3.338-.267-4.363-.8-1.024-.532-1.534-1.277-1.534-2.234 0-.956.51-1.682 1.534-2.215 1.025-.533 2.479-.8 4.363-.8 1.885 0 3.336.267 4.353.8 1.018.533 1.525 1.271 1.525 2.215zm-5.88-1.396c-1.24 0-2.18.144-2.82.436-.638.292-.96.617-.96.976 0 .36.322.687.967.986.645.298 1.583.446 2.809.446 1.226 0 2.16-.148 2.8-.446.638-.299.96-.626.96-.986s-.316-.684-.951-.976c-.633-.292-1.57-.436-2.81-.436h.004zM67.302 13.416h1.304V5.9h-1.153c-.06 0-.128-.033-.196-.094a.278.278 0 0 1-.103-.205V4.45c0-.061.033-.129.103-.196.068-.068.132-.103.196-.103h8.003c.074 0 .138.029.196.083a.283.283 0 0 1 .084.216V5.62a.94.94 0 0 1-.094.148c-.06.087-.125.132-.186.132h-1.19v7.332c.285-.026.555-.055.808-.093.254-.039.501-.074.735-.113a.33.33 0 0 1 .196.03c.068.031.11.076.122.14l.167 1.153c.026.1.01.177-.045.231a.36.36 0 0 1-.176.103c-.559.112-1.188.202-1.888.27-.7.067-1.435.121-2.205.157-.77.038-1.551.058-2.344.064-.793.006-1.57 0-2.327-.029a.242.242 0 0 1-.187-.083.277.277 0 0 1-.073-.196v-1.191c0-.174.086-.26.26-.26h-.007zm4.151-.039c.286 0 .572-.013.857-.038V5.9h-1.75V13.4c.312-.013.607-.02.893-.02v-.003zm6.16-10.494h1.51c.173 0 .26.08.26.24v16.248c0 .173-.087.26-.26.26h-1.51c-.173 0-.26-.087-.26-.26v-9.063h-1.842a.291.291 0 0 1-.196-.074.223.223 0 0 1-.083-.166V8.783c0-.06.028-.115.083-.157a.319.319 0 0 1 .196-.064h1.843V3.127c0-.16.086-.24.26-.24v-.004zm4.896 17.38h-1.618c-.16 0-.24-.08-.24-.24V2.809c0-.16.086-.24.26-.24h1.602c.16 0 .24.08.24.24v17.214c0 .16-.08.24-.24.24h-.004zM90.806 15.949c-.706 0-1.345-.148-1.917-.447a4.121 4.121 0 0 1-1.441-1.255c-.392-.539-.694-1.188-.902-1.945-.212-.758-.315-1.59-.315-2.495s.106-1.775.315-2.53c.212-.757.51-1.399.902-1.925.392-.527.87-.938 1.441-1.23.572-.292 1.21-.437 1.917-.437.706 0 1.361.145 1.926.437.565.292 1.043.7 1.432 1.23.391.526.69 1.168.902 1.926.212.757.314 1.598.314 2.53 0 .93-.105 1.775-.314 2.53-.212.757-.51 1.402-.902 1.935-.392.533-.87.947-1.432 1.236-.565.292-1.207.436-1.926.436v.004zm2.475-6.142a7.6 7.6 0 0 0-.167-1.627 5.004 5.004 0 0 0-.485-1.348 2.755 2.755 0 0 0-.773-.912 1.72 1.72 0 0 0-1.05-.334c-.395 0-.748.112-1.05.334a2.755 2.755 0 0 0-.774.912 5.004 5.004 0 0 0-.484 1.348 7.62 7.62 0 0 0-.167 1.627c0 .569.054 1.095.167 1.609.112.514.272.966.484 1.358.212.391.47.7.774.93.305.232.655.344 1.05.344s.748-.115 1.05-.343a2.8 2.8 0 0 0 .773-.931c.212-.392.373-.844.485-1.358.112-.514.167-1.05.167-1.609zM100 19.987c0 .16-.08.241-.24.241h-1.657c-.16 0-.241-.08-.241-.24V2.808c0-.16.08-.24.24-.24h1.657c.16 0 .241.08.241.24v17.178z" fill="#1D1D1B"/>
    <path d="M18.446 0H5.592A5.592 5.592 0 0 0 0 5.592v12.854a5.592 5.592 0 0 0 5.592 5.592h12.854a5.592 5.592 0 0 0 5.592-5.592V5.592A5.592 5.592 0 0 0 18.447 0z" fill="#224CC4"/>
    <path d="M8.087 14.668a.86.86 0 1 0 0 1.721.86.86 0 0 0 0-1.72zM15.952 16.389a.86.86 0 1 0 0-1.72.86.86 0 0 0 0 1.72zM3.197 9.397a.666.666 0 0 0-.664.664v1.715c0 .366.299.664.664.664a.666.666 0 0 0 .665-.664V10.06a.666.666 0 0 0-.665-.664zM20.842 9.397a.666.666 0 0 0-.665.664v1.715a.666.666 0 0 0 1.33 0V10.06a.666.666 0 0 0-.665-.664z" fill="#fff"/>
    <path d="M18.645 6.998a3.295 3.295 0 0 0-1.939-1.03 3.184 3.184 0 0 0-.497-.042H7.827A3.31 3.31 0 0 0 4.52 9.233v8.038a.577.577 0 1 0 1.156 0V13.34H18.36v3.932a.578.578 0 1 0 1.155 0V9.233c0-.456-.096-.893-.263-1.288a3.293 3.293 0 0 0-.607-.947zm-12.966 5.3V9.23a2.15 2.15 0 0 1 2.148-2.148h8.385a2.137 2.137 0 0 1 1.968 1.306c.112.26.176.543.176.842v3.069H5.68z" fill="#fff"/>
</svg>
